<?xml version="1.0" encoding="UTF-8" standalone="no"?>
<!-- Created with Inkscape (http://www.inkscape.org/) -->

<svg
   xmlns:dc="http://purl.org/dc/elements/1.1/"
   xmlns:cc="http://creativecommons.org/ns#"
   xmlns:rdf="http://www.w3.org/1999/02/22-rdf-syntax-ns#"
   xmlns:svg="http://www.w3.org/2000/svg"
   xmlns="http://www.w3.org/2000/svg"
   xmlns:sodipodi="http://sodipodi.sourceforge.net/DTD/sodipodi-0.dtd"
   xmlns:inkscape="http://www.inkscape.org/namespaces/inkscape"
   width="496.93393mm"
   height="184.78212mm"
   viewBox="0 0 1760.7895 654.7398"
   id="svg2"
   version="1.1"
   inkscape:version="0.91 r13725"
   sodipodi:docname="logo.svg"
   inkscape:export-filename="logo.png"
   inkscape:export-xdpi="90.035767"
   inkscape:export-ydpi="90.035767">
  <defs
     id="defs4" />
  <sodipodi:namedview
     id="base"
     pagecolor="#ffffff"
     bordercolor="#666666"
     borderopacity="1.0"
     inkscape:pageopacity="0.0"
     inkscape:pageshadow="2"
     inkscape:zoom="0.5"
     inkscape:cx="1250.578"
     inkscape:cy="348.46799"
     inkscape:document-units="px"
     inkscape:current-layer="layer1"
     showgrid="false"
     fit-margin-top="0"
     fit-margin-left="0"
     fit-margin-right="0"
     fit-margin-bottom="0"
     inkscape:window-width="1920"
     inkscape:window-height="1101"
     inkscape:window-x="0"
     inkscape:window-y="28"
     inkscape:window-maximized="1"
     showguides="true"
     inkscape:guide-bbox="true" />
  <metadata
     id="metadata7">
    <rdf:RDF>
      <cc:Work
         rdf:about="">
        <dc:format>image/svg+xml</dc:format>
        <dc:type
           rdf:resource="http://purl.org/dc/dcmitype/StillImage" />
        <dc:title></dc:title>
      </cc:Work>
    </rdf:RDF>
  </metadata>
  <g
     inkscape:label="Layer 1"
     inkscape:groupmode="layer"
     id="layer1"
     transform="translate(1742.9415,10.43051)">
    <g
       id="g4326"
       transform="matrix(3.0387712,0,0,3.0387712,-1795.0474,-71.83589)">
      <rect
         x="264.11392"
         y="192.4986"
         display="none"
         width="11"
         height="35"
         id="rect25"
         style="clip-rule:evenodd;display:none;fill:#ffffff;fill-rule:evenodd;stroke:#000000;stroke-width:1" />
      <path
         inkscape:connector-curvature="0"
         id="path7"
         d="m 73.366985,20.207306 c -23.56419,0 -42.66693,19.10274 -42.66693,42.66694 l 0,15.95304 c -8.26862,1.4791 -13.55303,3.52333 -13.55303,6.13337 l 0,85.114254 l 55.60819,19.71778 l 56.831735,-19.71778 l 0,-85.114254 c 0,-2.61004 -5.28441,-4.65427 -13.55302,-6.13337 l 0,-15.95304 c 0,-23.5642 -19.102745,-42.66694 -42.666945,-42.66694 z m 0,17.56874 c 13.86123,0 25.0982,11.23697 25.0982,25.0982 l 0,13.89813 c -15.6505,-1.13868 -34.54589,-1.13868 -50.1964,0 l 0,-13.89813 c 0,-13.86123 11.23697,-25.0982 25.0982,-25.0982 z m -1.06667,59.5141 c 19.38836,0.03137 38.713975,1.47452 38.713975,4.235314 l 0,53.77289 l -38.290445,14.1648 l -39.51397,-14.1648 l 0,-53.77289 c 0.25098,-2.886284 19.70208,-4.266684 39.09044,-4.235314 z"
         style="fill:#231f20;fill-opacity:1;fill-rule:evenodd;stroke:none" />
      <g
         style="fill:#231f20;fill-opacity:1;stroke:none"
         transform="matrix(0.95575135,0,0,0.95575135,91.363135,-287.43374)"
         id="g3222">
        <path
           d="m 87.572631,446.28445 l 0,-52.61285 l -19.180042,0 l 0,-18.85879 l 59.899361,0 l 0,18.85879 l -19.07363,0 l 0,52.61285 l -21.645689,0 z"
           id="path13"
           style="fill:#231f20;fill-opacity:1;stroke:none"
           inkscape:connector-curvature="0" />
        <path
           d="m 172.65151,446.28445 l -9.85857,-22.50204 l -7.8216,0 l 0,22.50204 l -21.64569,0 l 0,-71.47164 l 38.14624,0 c 16.71641,0 25.71762,11.14461 25.71762,24.53801 c 0,12.32221 -7.17908,18.85878 -12.85931,21.64569 l 12.96573,25.28794 l -24.64442,0 z m 2.57106,-47.04105 c 0,-3.8581 -3.42942,-5.57281 -7.07267,-5.57281 l -13.17957,0 l 0,11.25102 l 13.17957,0 c 3.64325,0 7.07267,-1.7137 7.07267,-5.67821 z"
           id="path15"
           style="fill:#231f20;fill-opacity:1;stroke:none"
           inkscape:connector-curvature="0" />
        <path
           d="m 203.29641,446.28445 l 0,-71.47164 l 54.22014,0 l 0,18.85879 l -32.57445,0 l 0,7.07267 l 31.82451,0 l 0,18.85879 l -31.82451,0 l 0,7.8226 l 32.57445,0 l 0,18.85879 l -54.22014,0 z"
           id="path17"
           style="fill:#231f20;fill-opacity:1;stroke:none"
           inkscape:connector-curvature="0" />
        <path
           d="m 262.55225,446.28445 l 0,-17.14508 l 27.21648,-35.46777 l -27.21648,0 l 0,-18.85879 l 55.82642,0 l 0,17.03766 l -27.3239,35.5762 l 28.07384,0 l 0,18.85878 l -56.57636,0 z"
           id="path19"
           style="fill:#231f20;fill-opacity:1;stroke:none"
           inkscape:connector-curvature="0" />
        <path
           d="m 321.16457,410.60184 c 0,-21.96695 17.03867,-36.96764 39.11203,-36.96764 c 22.07336,0 39.11102,15.00069 39.11102,36.96764 c 0,21.96694 -17.03766,36.96864 -39.11102,36.96864 c -22.07336,0 -39.11203,-15.0027 -39.11203,-36.96864 z m 56.25611,0 c 0,-9.96499 -6.75042,-17.89401 -17.14408,-17.89401 c -10.39367,0 -17.14508,7.92902 -17.14508,17.89401 c 0,9.96599 6.75141,17.89501 17.14508,17.89501 c 10.39366,0 17.14408,-7.93002 17.14408,-17.89501 z"
           id="path21"
           style="fill:#231f20;fill-opacity:1;stroke:none"
           inkscape:connector-curvature="0" />
        <path
           d="m 443.74818,446.28445 l -9.85756,-22.50204 l -7.82261,0 l 0,22.50204 l -21.64569,0 l 0,-71.47164 l 38.14725,0 c 16.7154,0 25.71662,11.14461 25.71662,24.53801 c 0,12.32221 -7.17909,18.85878 -12.85931,21.64569 l 12.96573,25.28794 l -24.64443,0 z m 2.57207,-47.04105 c 0,-3.8581 -3.42842,-5.57281 -7.07167,-5.57281 l -13.18057,0 l 0,11.25102 l 13.18057,0 c 3.64225,0 7.07167,-1.7137 7.07167,-5.67821 z"
           id="path23"
           style="fill:#231f20;fill-opacity:1;stroke:none"
           inkscape:connector-curvature="0" />
      </g>
    </g>
    <rect
       x="-1230.4656"
       y="1283.1233"
       display="none"
       width="33.426483"
       height="106.35699"
       id="rect4339"
       style="clip-rule:evenodd;display:none;fill:#ffffff;fill-rule:evenodd;stroke:#000000;stroke-width:3.03877115" />
    <g
       id="g4402"
       style="fill:#231f20;fill-opacity:1"
       transform="translate(-11.644054,32.707107)">
      <path
         d="m -216.9822,607.867 l -28.6324,-65.3529 l -22.7163,0 l 0,65.3529 l -62.8658,0 l 0,-207.57578 l 110.7885,0 c 48.5496,0 74.6919,32.3674 74.6919,71.26598 c 0,35.7875 -20.8503,54.7717 -37.3474,62.8658 l 37.6565,73.444 l -71.575,0 z m 7.4671,-136.62178 c 0,-11.20512 -9.9601,-16.18517 -20.5412,-16.18517 l -38.2776,0 l 0,32.67645 l 38.2776,0 c 10.5811,0 20.5412,-4.97712 20.5412,-16.49128 z"
         id="path4347"
         style="fill:#231f20;fill-opacity:1;stroke:none"
         inkscape:connector-curvature="0" />
      <path
         d="m -127.98,607.867 l 0,-207.57578 l 157.4721,0 l 0,54.77177 l -94.6063,0 l 0,20.54122 l 92.4283,0 l 0,54.77179 l -92.4283,0 l 0,22.7192 l 94.6063,0 l 0,54.7718 l -157.4721,0 z"
         id="path4349"
         style="fill:#231f20;fill-opacity:1;stroke:none"
         inkscape:connector-curvature="0" />
      <path
         d="m -573.0146,504.2336 c 0,-63.79878 49.4856,-107.36543 113.5934,-107.36543 c 64.1079,0 113.5905,43.56665 113.5905,107.36543 c 0,63.7988 -49.4826,107.3684 -113.5905,107.3684 c -64.1079,0 -113.5934,-43.5725 -113.5934,-107.3684 z m 163.3851,0 c 0,-28.94137 -19.6053,-51.9697 -49.7917,-51.9697 c -30.1864,0 -49.7946,23.02833 -49.7946,51.9697 c 0,28.9444 19.6082,51.9727 49.7946,51.9727 c 30.1864,0 49.7917,-23.0312 49.7917,-51.9727 z"
         id="path4353"
         style="fill:#231f20;fill-opacity:1;stroke:none"
         inkscape:connector-curvature="0" />
      <path
         id="path4373"
         transform="translate(-256,540.36193)"
         d="m -445.60547,-143.49414 c -64.1078,0 -113.59375,43.566454 -113.59375,107.365234 c 0,63.7959 49.48585,107.36914 113.59375,107.36914 c 64.1079,0 113.58985,-43.57034 113.58985,-107.36914 c 0,-63.79878 -49.48195,-107.365234 -113.58985,-107.365234 z m -0.002,16.41797 l 0.004,0 c 52.8262,0 87.13477,40.299814 87.13477,90.947264 c 1e-4,50.6476 -34.30857,90.951172 -87.13477,90.951172 l -0.004,0 l 0,-38.978516 c -30.18528,-10e-4 -49.79297,-23.0288871 -49.79297,-51.972656 c 0,-28.940739 19.60769,-51.967746 49.79297,-51.96875 l 0,-38.978514 z"
         style="fill:#231f20;fill-opacity:1;stroke:none"
         inkscape:connector-curvature="0" />
    </g>
  </g>
</svg>
